<svg width="291" height="46" viewBox="0 0 291 46" fill="none" xmlns="http://www.w3.org/2000/svg">
    <path d="M86.0129 15.2179H83.766V20.8429H79.4386L79.4385 5.69864H83.766L83.766 11.7293H86.0961L90.2412 5.69864H94.846L89.5359 13.0968L95.1116 20.8429H90.0074L86.0129 15.2179Z" fill="#13133E"/>
    <path d="M103.877 21.0661C102.287 21.0661 100.854 20.7405 99.5777 20.0893C98.3201 19.4195 97.3308 18.4985 96.6095 17.3264C95.9068 16.1542 95.5554 14.8239 95.5554 13.3354C95.5554 11.847 95.9068 10.5167 96.6095 9.3445C97.3308 8.17234 98.3201 7.26065 99.5777 6.60945C100.854 5.93964 102.287 5.60474 103.877 5.60474C105.449 5.60474 106.818 5.93964 107.983 6.60945C109.166 7.26065 110.026 8.20024 110.563 9.42823L107.206 11.2423C106.429 9.86546 105.311 9.17705 103.85 9.17705C102.722 9.17705 101.788 9.54916 101.048 10.2934C100.308 11.0376 99.9383 12.0516 99.9383 13.3354C99.9383 14.6192 100.308 15.6332 101.048 16.3775C101.788 17.1217 102.722 17.4938 103.85 17.4938C105.329 17.4938 106.448 16.8054 107.206 15.4286L110.563 17.2706C110.026 18.4613 109.166 19.3916 107.983 20.0614C106.818 20.7312 105.449 21.0661 103.877 21.0661Z" fill="#13133E"/>
    <path d="M128.033 5.69864V20.8429H123.706V9.16018H117.492V20.8429H113.192V5.69864H128.033Z" fill="#13133E"/>
    <path d="M140.976 5.60474C142.363 5.60474 143.62 5.93034 144.748 6.58154C145.895 7.21414 146.792 8.11652 147.439 9.28868C148.086 10.4422 148.41 11.7912 148.41 13.3354C148.41 14.8797 148.086 16.2379 147.439 17.4101C146.792 18.5637 145.895 19.466 144.748 20.1172C143.62 20.7498 142.363 21.0661 140.976 21.0661C139.071 21.0661 137.573 20.4614 136.482 19.2521V26.2571H132.154V5.69864H136.288V7.55835C137.36 6.25594 138.923 5.60474 140.976 5.60474ZM140.227 17.4938C141.336 17.4938 142.243 17.1217 142.945 16.3775C143.667 15.6146 144.027 14.6006 144.027 13.3354C144.027 12.0702 143.667 11.0655 142.945 10.3213C142.243 9.55847 141.336 9.17705 140.227 9.17705C139.117 9.17705 138.202 9.55847 137.481 10.3213C136.778 11.0655 136.426 12.0702 136.426 13.3354C136.426 14.6006 136.778 15.6146 137.481 16.3775C138.202 17.1217 139.117 17.4938 140.227 17.4938Z" fill="#13133E"/>
    <path d="M165.951 13.3913C165.951 13.4471 165.923 13.8378 165.868 14.5634H154.578C154.781 15.4937 155.262 16.2286 156.02 16.7682C156.778 17.3078 157.721 17.5776 158.85 17.5776C159.626 17.5776 160.31 17.4659 160.902 17.2426C161.513 17.0008 162.077 16.6287 162.594 16.1263L164.897 18.6381C163.491 20.2568 161.439 21.0661 158.739 21.0661C157.056 21.0661 155.567 20.7405 154.272 20.0893C152.978 19.4195 151.979 18.4985 151.277 17.3264C150.574 16.1542 150.222 14.8239 150.222 13.3354C150.222 11.8656 150.565 10.5446 151.249 9.37241C151.952 8.18164 152.904 7.26065 154.106 6.60945C155.327 5.93964 156.686 5.60474 158.184 5.60474C159.645 5.60474 160.967 5.92104 162.151 6.55363C163.334 7.18623 164.259 8.09791 164.925 9.28868C165.609 10.4608 165.951 11.8284 165.951 13.3913ZM158.212 8.89796C157.231 8.89796 156.408 9.17705 155.743 9.73522C155.077 10.2934 154.67 11.0562 154.522 12.0237H161.873C161.725 11.0748 161.318 10.3213 160.653 9.76313C159.987 9.18635 159.173 8.89796 158.212 8.89796Z" fill="#13133E"/>
    <path d="M176.369 21.0661C174.779 21.0661 173.346 20.7405 172.07 20.0893C170.812 19.4195 169.823 18.4985 169.102 17.3264C168.399 16.1542 168.047 14.8239 168.047 13.3354C168.047 11.847 168.399 10.5167 169.102 9.3445C169.823 8.17234 170.812 7.26065 172.07 6.60945C173.346 5.93964 174.779 5.60474 176.369 5.60474C177.941 5.60474 179.31 5.93964 180.475 6.60945C181.658 7.26065 182.518 8.20024 183.055 9.42823L179.698 11.2423C178.921 9.86546 177.803 9.17705 176.342 9.17705C175.214 9.17705 174.28 9.54916 173.54 10.2934C172.8 11.0376 172.43 12.0516 172.43 13.3354C172.43 14.6192 172.8 15.6332 173.54 16.3775C174.28 17.1217 175.214 17.4938 176.342 17.4938C177.821 17.4938 178.94 16.8054 179.698 15.4286L183.055 17.2706C182.518 18.4613 181.658 19.3916 180.475 20.0614C179.31 20.7312 177.941 21.0661 176.369 21.0661Z" fill="#13133E"/>
    <path d="M192.596 21.0661C191.006 21.0661 189.572 20.7405 188.296 20.0893C187.039 19.4195 186.05 18.4985 185.328 17.3264C184.626 16.1542 184.274 14.8239 184.274 13.3354C184.274 11.847 184.626 10.5167 185.328 9.3445C186.05 8.17234 187.039 7.26065 188.296 6.60945C189.572 5.93964 191.006 5.60474 192.596 5.60474C194.168 5.60474 195.537 5.93964 196.702 6.60945C197.885 7.26065 198.745 8.20024 199.281 9.42823L195.925 11.2423C195.148 9.86546 194.029 9.17705 192.568 9.17705C191.44 9.17705 190.506 9.54916 189.767 10.2934C189.027 11.0376 188.657 12.0516 188.657 13.3354C188.657 14.6192 189.027 15.6332 189.767 16.3775C190.506 17.1217 191.44 17.4938 192.568 17.4938C194.048 17.4938 195.167 16.8054 195.925 15.4286L199.281 17.2706C198.745 18.4613 197.885 19.3916 196.702 20.0614C195.537 20.7312 194.168 21.0661 192.596 21.0661Z" fill="#13133E"/>
    <path d="M219.365 21.1778C217.349 21.1778 215.528 20.7405 213.9 19.8661C212.291 18.9916 211.025 17.7915 210.1 16.2658C209.194 14.7216 208.741 12.9912 208.741 11.0748C208.741 9.15844 209.194 7.43741 210.1 5.91174C211.025 4.36746 212.291 3.15808 213.9 2.28361C215.528 1.40914 217.349 0.971904 219.365 0.971904C221.381 0.971904 223.193 1.40914 224.802 2.28361C226.411 3.15808 227.678 4.36746 228.602 5.91174C229.527 7.43741 229.989 9.15844 229.989 11.0748C229.989 12.9912 229.527 14.7216 228.602 16.2658C227.678 17.7915 226.411 18.9916 224.802 19.8661C223.193 20.7405 221.381 21.1778 219.365 21.1778ZM219.365 17.3264C220.512 17.3264 221.547 17.0659 222.472 16.5449C223.397 16.0054 224.118 15.2611 224.636 14.3122C225.172 13.3633 225.44 12.2842 225.44 11.0748C225.44 9.86546 225.172 8.78633 224.636 7.83743C224.118 6.88854 223.397 6.15361 222.472 5.63265C221.547 5.09308 220.512 4.8233 219.365 4.8233C218.219 4.8233 217.183 5.09308 216.258 5.63265C215.334 6.15361 214.603 6.88854 214.067 7.83743C213.549 8.78633 213.29 9.86546 213.29 11.0748C213.29 12.2842 213.549 13.3633 214.067 14.3122C214.603 15.2611 215.334 16.0054 216.258 16.5449C217.183 17.0659 218.219 17.3264 219.365 17.3264Z" fill="#13133E"/>
    <path d="M253.729 13.2796C253.729 15.6053 252.952 17.4473 251.399 18.8055C249.864 20.1451 247.663 20.9173 244.797 21.122V26.2571H240.83V21.122C237.964 20.9173 235.754 20.1545 234.2 18.8334C232.665 17.4938 231.898 15.6426 231.898 13.2796C231.898 10.9539 232.656 9.14914 234.173 7.86534C235.707 6.58154 237.927 5.83731 240.83 5.63265V0.134644H244.797V5.63265C247.663 5.83731 249.864 6.59085 251.399 7.89325C252.952 9.19565 253.729 10.9911 253.729 13.2796ZM236.087 13.2796C236.087 14.6192 236.466 15.6519 237.224 16.3775C237.982 17.1031 239.184 17.5589 240.83 17.745V9.0096C239.184 9.17705 237.982 9.61428 237.224 10.3213C236.466 11.0097 236.087 11.9958 236.087 13.2796ZM244.797 17.745C246.443 17.5589 247.645 17.1031 248.403 16.3775C249.18 15.6519 249.568 14.6192 249.568 13.2796C249.568 11.9958 249.18 11.0097 248.403 10.3213C247.645 9.61428 246.443 9.17705 244.797 9.0096V17.745Z" fill="#13133E"/>
    <path d="M256.659 5.69864H260.959V14.6294L268.227 5.69864H272.194V20.8429H267.894V11.7827L260.654 20.8429H256.659V5.69864Z" fill="#13133E"/>
    <path d="M283.455 21.0661C281.865 21.0661 280.431 20.7405 279.155 20.0893C277.898 19.4195 276.908 18.4985 276.187 17.3264C275.484 16.1542 275.133 14.8239 275.133 13.3354C275.133 11.847 275.484 10.5167 276.187 9.3445C276.908 8.17234 277.898 7.26065 279.155 6.60945C280.431 5.93964 281.865 5.60474 283.455 5.60474C285.027 5.60474 286.395 5.93964 287.56 6.60945C288.744 7.26065 289.604 8.20024 290.14 9.42823L286.784 11.2423C286.007 9.86546 284.888 9.17705 283.427 9.17705C282.299 9.17705 281.365 9.54916 280.626 10.2934C279.886 11.0376 279.516 12.0516 279.516 13.3354C279.516 14.6192 279.886 15.6332 280.626 16.3775C281.365 17.1217 282.299 17.4938 283.427 17.4938C284.907 17.4938 286.026 16.8054 286.784 15.4286L290.14 17.2706C289.604 18.4613 288.744 19.3916 287.56 20.0614C286.395 20.7312 285.027 21.0661 283.455 21.0661Z" fill="#13133E"/>
    <path d="M66.1602 0.961522C68.0835 0.961522 69.8034 1.39876 71.3198 2.27323C72.8548 3.12909 74.0568 4.32916 74.926 5.87344C75.7952 7.39912 76.2298 9.12945 76.2298 11.0645C76.2298 12.9995 75.7952 14.7391 74.926 16.2834C74.0568 17.809 72.8548 19.0091 71.3198 19.8836C69.8034 20.7395 68.0835 21.1674 66.1602 21.1674C64.4403 21.1674 62.8869 20.8697 61.4999 20.2743C60.1314 19.6789 58.9848 18.8138 58.0602 17.6788L60.9174 14.9996C62.2859 16.5439 63.9595 17.316 65.9383 17.316C67.3623 17.316 68.5643 16.8974 69.5445 16.0601C70.5431 15.2228 71.3179 14.028 71.4863 12.6208H63.6082V9.16018H71.4308C71.1164 7.82056 70.4691 6.81304 69.489 6.01299C68.5089 5.21294 67.3253 4.81292 65.9383 4.81292C63.9595 4.81292 62.2859 5.58505 60.9174 7.12933L58.0602 4.4501C58.9848 3.31515 60.1314 2.44998 61.4999 1.8546C62.8869 1.25921 64.4403 0.961522 66.1602 0.961522Z" fill="#13133E"/>
    <path d="M16.4142 3.14252C20.3493 0.285826 25.6688 0.285826 29.6038 3.14252L35.5075 7.42843L41.3969 11.7341C45.3224 14.604 46.9662 19.677 45.4727 24.3124L43.232 31.267L40.9681 38.214C39.4592 42.8443 35.1556 45.9796 30.2976 45.9878L23.009 46L15.7205 45.9878C10.8625 45.9796 6.55886 42.8443 5.04992 38.214L2.78605 31.267L0.545359 24.3124C-0.948128 19.677 0.695704 14.604 4.62116 11.7341L10.5105 7.42843L16.4142 3.14252Z" fill="#33CCCC"/>
    <path fill-rule="evenodd" clip-rule="evenodd" d="M19.3535 13.1152C18.5221 13.1152 17.8482 13.7933 17.8482 14.6297V18.7402H8.17151V20.9037H10.1068L10.1068 35.8316H12.2572L12.2572 20.9037H17.8482V24.7979H17.3406C17.0412 23.816 16.9881 22.8456 16.9881 22.2018H14.8377C14.8377 23.2255 14.9435 25.308 16.0365 27.1617C17.0688 28.9125 18.9013 30.3244 21.9339 30.5931V32.231C20.9221 32.3833 20.1103 32.7524 19.4733 33.2623C18.6376 33.9311 18.1864 34.7751 17.9429 35.4736C17.9 35.5967 17.8631 35.7165 17.8314 35.8316H20.1213C20.2768 35.5152 20.498 35.2067 20.8121 34.9553C21.0736 34.746 21.4323 34.5496 21.9339 34.4314V35.8316H24.0843V34.4314C24.5859 34.5496 24.9446 34.746 25.2061 34.9553C25.5202 35.2067 25.7414 35.5152 25.8969 35.8316H28.1868C28.1551 35.7165 28.1182 35.5967 28.0753 35.4736C27.8318 34.7751 27.3806 33.9311 26.5449 33.2623C25.908 32.7524 25.0961 32.3833 24.0843 32.231V30.5931C27.1169 30.3244 28.9494 28.9125 29.9818 27.1617C31.0748 25.308 31.1805 23.2255 31.1805 22.2018H29.0302C29.0302 22.8456 28.9771 23.816 28.6776 24.7979H28.17V20.9037H33.761V35.8316H35.9114V20.9037H37.8467V18.7402H28.17V14.6297C28.17 13.7933 27.4961 13.1152 26.6648 13.1152H19.3535ZM23.0091 28.4758C20.7732 28.4758 19.4224 27.8154 18.5775 26.9614H27.4407C26.5959 27.8154 25.245 28.4758 23.0091 28.4758ZM26.0196 24.7979H19.9986V15.2787H26.0196V24.7979Z" fill="white"/>
    <path d="M67.1141 42.3222V38.0333L64.9465 41.6437H64.2962L62.1648 38.0212V42.3222H60.792V35.8525H62.3695L64.6575 39.8991L67.0539 35.8525H68.4628L68.4749 42.3222H67.1141Z" fill="#13133E"/>
    <path d="M76.5149 39.1237C76.5149 39.2287 76.5069 39.3781 76.4909 39.572H71.4452C71.5335 40.0485 71.7623 40.4281 72.1316 40.7108C72.5089 40.9854 72.9746 41.1227 73.5285 41.1227C74.235 41.1227 74.817 40.8885 75.2746 40.42L76.0814 41.3529C75.7924 41.7002 75.4271 41.9627 74.9856 42.1404C74.5441 42.3181 74.0463 42.407 73.4924 42.407C72.7859 42.407 72.1637 42.2656 71.6258 41.9829C71.088 41.7002 70.6705 41.3085 70.3735 40.8077C70.0845 40.2989 69.94 39.7254 69.94 39.0873C69.94 38.4573 70.0804 37.892 70.3614 37.3912C70.6504 36.8824 71.0478 36.4866 71.5536 36.2039C72.0594 35.9212 72.6294 35.7799 73.2636 35.7799C73.8898 35.7799 74.4477 35.9212 74.9374 36.2039C75.4352 36.4785 75.8205 36.8702 76.0935 37.3791C76.3745 37.8799 76.5149 38.4614 76.5149 39.1237ZM73.2636 36.9914C72.7819 36.9914 72.3725 37.1368 72.0353 37.4275C71.7061 37.7102 71.5054 38.0899 71.4332 38.5664H75.0819C75.0177 38.0979 74.821 37.7183 74.4919 37.4275C74.1627 37.1368 73.7533 36.9914 73.2636 36.9914Z" fill="#13133E"/>
    <path d="M81.6415 36.1675C82.2516 36.1675 82.7895 36.3008 83.2551 36.5674C83.7208 36.8258 84.082 37.1893 84.3389 37.6577C84.6039 38.1262 84.7363 38.6633 84.7363 39.2691C84.7363 39.891 84.5918 40.4443 84.3028 40.9289C84.0138 41.4054 83.6084 41.777 83.0866 42.0435C82.5647 42.31 81.9706 42.4433 81.3043 42.4433C80.1884 42.4433 79.3254 42.0718 78.7153 41.3287C78.1051 40.5856 77.8001 39.5154 77.8001 38.1181C77.8001 36.8177 78.077 35.7879 78.631 35.0287C79.1849 34.2695 80.0319 33.7687 81.1719 33.5264L84.1583 32.8843L84.3751 34.2412L81.6656 34.7985C80.8869 34.96 80.3048 35.2347 79.9195 35.6224C79.5341 36.01 79.3093 36.5552 79.2451 37.2579C79.5341 36.9106 79.8834 36.6441 80.2928 36.4583C80.7022 36.2645 81.1518 36.1675 81.6415 36.1675ZM81.3404 41.2197C81.8944 41.2197 82.3399 41.042 82.6771 40.6866C83.0223 40.3231 83.1949 39.8627 83.1949 39.3054C83.1949 38.7481 83.0223 38.2998 82.6771 37.9606C82.3399 37.6214 81.8944 37.4518 81.3404 37.4518C80.7785 37.4518 80.3249 37.6214 79.9797 37.9606C79.6345 38.2998 79.4619 38.7481 79.4619 39.3054C79.4619 39.8708 79.6345 40.3312 79.9797 40.6866C80.3329 41.042 80.7865 41.2197 81.3404 41.2197Z" fill="#13133E"/>
    <path d="M92.2144 39.1237C92.2144 39.2287 92.2064 39.3781 92.1903 39.572H87.1446C87.233 40.0485 87.4618 40.4281 87.831 40.7108C88.2084 40.9854 88.674 41.1227 89.2279 41.1227C89.9344 41.1227 90.5164 40.8885 90.974 40.42L91.7809 41.3529C91.4919 41.7002 91.1266 41.9627 90.685 42.1404C90.2435 42.3181 89.7457 42.407 89.1918 42.407C88.4853 42.407 87.8632 42.2656 87.3253 41.9829C86.7874 41.7002 86.3699 41.3085 86.0729 40.8077C85.7839 40.2989 85.6394 39.7254 85.6394 39.0873C85.6394 38.4573 85.7799 37.892 86.0609 37.3912C86.3499 36.8824 86.7473 36.4866 87.253 36.2039C87.7588 35.9212 88.3288 35.7799 88.963 35.7799C89.5892 35.7799 90.1472 35.9212 90.6369 36.2039C91.1346 36.4785 91.52 36.8702 91.7929 37.3791C92.0739 37.8799 92.2144 38.4614 92.2144 39.1237ZM88.963 36.9914C88.4813 36.9914 88.0719 37.1368 87.7347 37.4275C87.4056 37.7102 87.2049 38.0899 87.1326 38.5664H90.7814C90.7171 38.0979 90.5205 37.7183 90.1913 37.4275C89.8622 37.1368 89.4527 36.9914 88.963 36.9914Z" fill="#13133E"/>
    <path d="M99.6068 35.8525V42.3222H98.1016V37.1368H95.6931L95.6329 38.421C95.5928 39.2772 95.5125 39.996 95.3921 40.5775C95.2797 41.151 95.083 41.6073 94.802 41.9466C94.5291 42.2777 94.1517 42.4433 93.6701 42.4433C93.4453 42.4433 93.1683 42.3989 92.8392 42.31L92.9114 41.0379C93.0238 41.0622 93.1201 41.0743 93.2004 41.0743C93.5055 41.0743 93.7343 40.9531 93.8868 40.7108C94.0394 40.4604 94.1357 40.1656 94.1758 39.8264C94.224 39.4791 94.2641 38.9864 94.2963 38.3483L94.4046 35.8525H99.6068Z" fill="#13133E"/>
    <path d="M104.861 37.9849C105.68 37.9849 106.306 38.1706 106.74 38.5422C107.181 38.9137 107.402 39.4387 107.402 40.1172C107.402 40.8279 107.161 41.3772 106.68 41.7648C106.198 42.1525 105.52 42.3423 104.645 42.3343L101.634 42.3222V35.8525H103.139V37.9727L104.861 37.9849ZM104.512 41.2197C104.954 41.2277 105.291 41.1348 105.524 40.941C105.756 40.7472 105.873 40.4645 105.873 40.0929C105.873 39.7295 105.76 39.4629 105.536 39.2933C105.311 39.1237 104.97 39.0348 104.512 39.0268L103.139 39.0147V41.2075L104.512 41.2197Z" fill="#13133E"/>
    <path d="M118.917 41.0379V43.7639H117.508V42.3222H112.547V43.7639H111.15V41.0379H111.451C111.861 41.0218 112.138 40.7593 112.282 40.2504C112.435 39.7335 112.535 39.0066 112.583 38.0697L112.667 35.8525H117.966V41.0379H118.917ZM113.956 38.1787C113.924 38.9218 113.864 39.5275 113.775 39.996C113.687 40.4645 113.526 40.8118 113.294 41.0379H116.461V37.1368H113.992L113.956 38.1787Z" fill="#13133E"/>
    <path d="M126.09 35.8525V42.3222H124.585V37.1368H122.176L122.116 38.421C122.076 39.2772 121.996 39.996 121.875 40.5775C121.763 41.151 121.566 41.6073 121.285 41.9466C121.012 42.2777 120.635 42.4433 120.153 42.4433C119.929 42.4433 119.652 42.3989 119.322 42.31L119.395 41.0379C119.507 41.0622 119.603 41.0743 119.684 41.0743C119.989 41.0743 120.218 40.9531 120.37 40.7108C120.523 40.4604 120.619 40.1656 120.659 39.8264C120.707 39.4791 120.747 38.9864 120.779 38.3483L120.888 35.8525H126.09Z" fill="#13133E"/>
    <path d="M133.548 35.8525V42.3222H132.2V40.3716H130.502L129.189 42.3222H127.575L129.093 40.1656C128.627 40.0041 128.27 39.7577 128.021 39.4266C127.78 39.0873 127.66 38.6714 127.66 38.1787C127.66 37.4356 127.921 36.8622 128.442 36.4583C128.964 36.0545 129.683 35.8525 130.598 35.8525H133.548ZM130.646 37.1247C129.675 37.1247 129.189 37.4922 129.189 38.2272C129.189 38.9541 129.659 39.3175 130.598 39.3175H132.2V37.1247H130.646Z" fill="#13133E"/>
    <path d="M144.97 35.8525L141.96 42.8431C141.679 43.5458 141.338 44.0385 140.936 44.3212C140.535 44.612 140.049 44.7573 139.479 44.7573C139.158 44.7573 138.841 44.7048 138.528 44.5998C138.215 44.4948 137.958 44.3495 137.757 44.1637L138.359 43.0491C138.504 43.1864 138.672 43.2954 138.865 43.3762C139.066 43.457 139.266 43.4973 139.467 43.4973C139.732 43.4973 139.949 43.4287 140.117 43.2914C140.294 43.1541 140.455 42.9239 140.599 42.6008L140.707 42.3464L137.902 35.8525H139.467L141.49 40.6381L143.525 35.8525H144.97Z" fill="#13133E"/>
    <path d="M148.766 42.407C148.099 42.407 147.501 42.2656 146.971 41.9829C146.442 41.7002 146.028 41.3085 145.731 40.8077C145.434 40.2989 145.285 39.7254 145.285 39.0873C145.285 38.4493 145.434 37.8799 145.731 37.3791C146.028 36.8783 146.438 36.4866 146.959 36.2039C147.489 35.9212 148.091 35.7799 148.766 35.7799C149.4 35.7799 149.954 35.9091 150.427 36.1675C150.909 36.426 151.27 36.7975 151.511 37.2822L150.355 37.9606C150.171 37.6618 149.938 37.4397 149.657 37.2943C149.384 37.1408 149.083 37.0641 148.754 37.0641C148.192 37.0641 147.726 37.2499 147.357 37.6214C146.987 37.9849 146.803 38.4735 146.803 39.0873C146.803 39.7012 146.983 40.1939 147.345 40.5654C147.714 40.9289 148.184 41.1106 148.754 41.1106C149.083 41.1106 149.384 41.0379 149.657 40.8925C149.938 40.7391 150.171 40.5129 150.355 40.2141L151.511 40.8925C151.262 41.3772 150.897 41.7527 150.415 42.0193C149.942 42.2777 149.392 42.407 148.766 42.407Z" fill="#13133E"/>
    <path d="M159.002 35.8525V42.3222H157.509V37.1368H154.342V42.3222H152.837V35.8525H159.002Z" fill="#13133E"/>
    <path d="M167.054 39.1237C167.054 39.2287 167.046 39.3781 167.03 39.572H161.984C162.073 40.0485 162.302 40.4281 162.671 40.7108C163.048 40.9854 163.514 41.1227 164.068 41.1227C164.774 41.1227 165.356 40.8885 165.814 40.42L166.621 41.3529C166.332 41.7002 165.966 41.9627 165.525 42.1404C165.083 42.3181 164.586 42.407 164.032 42.407C163.325 42.407 162.703 42.2656 162.165 41.9829C161.627 41.7002 161.21 41.3085 160.913 40.8077C160.624 40.2989 160.479 39.7254 160.479 39.0873C160.479 38.4573 160.62 37.892 160.901 37.3912C161.19 36.8824 161.587 36.4866 162.093 36.2039C162.599 35.9212 163.169 35.7799 163.803 35.7799C164.429 35.7799 164.987 35.9212 165.477 36.2039C165.974 36.4785 166.36 36.8702 166.633 37.3791C166.914 37.8799 167.054 38.4614 167.054 39.1237ZM163.803 36.9914C163.321 36.9914 162.912 37.1368 162.575 37.4275C162.245 37.7102 162.045 38.0899 161.972 38.5664H165.621C165.557 38.0979 165.36 37.7183 165.031 37.4275C164.702 37.1368 164.293 36.9914 163.803 36.9914Z" fill="#13133E"/>
    <path d="M178.178 35.8525V42.3222H168.701V35.8525H170.206V41.0379H172.699V35.8525H174.204V41.0379H176.672V35.8525H178.178Z" fill="#13133E"/>
    <path d="M180.202 35.8525H181.707V38.4816H184.946V35.8525H186.452V42.3222H184.946V39.7658H181.707V42.3222H180.202V35.8525Z" fill="#13133E"/>
    <path d="M191.335 42.407C190.685 42.407 190.099 42.2656 189.577 41.9829C189.055 41.7002 188.646 41.3085 188.349 40.8077C188.06 40.2989 187.915 39.7254 187.915 39.0873C187.915 38.4493 188.06 37.8799 188.349 37.3791C188.646 36.8783 189.055 36.4866 189.577 36.2039C190.099 35.9212 190.685 35.7799 191.335 35.7799C191.993 35.7799 192.583 35.9212 193.105 36.2039C193.627 36.4866 194.032 36.8783 194.321 37.3791C194.618 37.8799 194.767 38.4493 194.767 39.0873C194.767 39.7254 194.618 40.2989 194.321 40.8077C194.032 41.3085 193.627 41.7002 193.105 41.9829C192.583 42.2656 191.993 42.407 191.335 42.407ZM191.335 41.1106C191.889 41.1106 192.347 40.9248 192.708 40.5533C193.069 40.1818 193.25 39.6931 193.25 39.0873C193.25 38.4816 193.069 37.9929 192.708 37.6214C192.347 37.2499 191.889 37.0641 191.335 37.0641C190.781 37.0641 190.323 37.2499 189.962 37.6214C189.609 37.9929 189.432 38.4816 189.432 39.0873C189.432 39.6931 189.609 40.1818 189.962 40.5533C190.323 40.9248 190.781 41.1106 191.335 41.1106Z" fill="#13133E"/>
    <path d="M196.254 35.8525H197.759V40.1172L201.312 35.8525H202.684V42.3222H201.179V38.0575L197.639 42.3222H196.254V35.8525ZM199.373 35.0893C198.723 35.0893 198.225 34.9399 197.88 34.641C197.542 34.3341 197.37 33.8899 197.362 33.3083H198.361C198.369 33.5991 198.458 33.8293 198.626 33.9989C198.803 34.1685 199.048 34.2533 199.361 34.2533C199.666 34.2533 199.907 34.1685 200.083 33.9989C200.268 33.8293 200.364 33.5991 200.372 33.3083H201.396C201.388 33.8899 201.211 34.3341 200.866 34.641C200.521 34.9399 200.023 35.0893 199.373 35.0893Z" fill="#13133E"/>
    <path d="M211.602 35.7799C212.228 35.7799 212.786 35.9172 213.276 36.1918C213.773 36.4664 214.163 36.8541 214.444 37.3549C214.725 37.8556 214.865 38.4331 214.865 39.0873C214.865 39.7416 214.725 40.3231 214.444 40.832C214.163 41.3327 213.773 41.7204 213.276 41.995C212.786 42.2697 212.228 42.407 211.602 42.407C210.735 42.407 210.048 42.1162 209.543 41.5347V44.6725H208.037V35.8525H209.47V36.7006C209.719 36.3937 210.024 36.1635 210.386 36.01C210.755 35.8566 211.16 35.7799 211.602 35.7799ZM211.433 41.1106C211.987 41.1106 212.441 40.9248 212.794 40.5533C213.155 40.1818 213.336 39.6931 213.336 39.0873C213.336 38.4816 213.155 37.9929 212.794 37.6214C212.441 37.2499 211.987 37.0641 211.433 37.0641C211.072 37.0641 210.747 37.1489 210.458 37.3185C210.169 37.48 209.94 37.7143 209.771 38.0212C209.603 38.3281 209.519 38.6835 209.519 39.0873C209.519 39.4912 209.603 39.8466 209.771 40.1535C209.94 40.4604 210.169 40.6987 210.458 40.8683C210.747 41.0298 211.072 41.1106 211.433 41.1106Z" fill="#13133E"/>
    <path d="M218.677 35.7799C219.625 35.7799 220.347 36.01 220.845 36.4704C221.351 36.9227 221.604 37.6093 221.604 38.53V42.3222H220.183V41.5347C219.998 41.8173 219.733 42.0354 219.388 42.1889C219.051 42.3343 218.641 42.407 218.16 42.407C217.678 42.407 217.256 42.3262 216.895 42.1647C216.534 41.995 216.253 41.7648 216.052 41.4741C215.86 41.1752 215.763 40.84 215.763 40.4685C215.763 39.887 215.976 39.4225 216.401 39.0752C216.835 38.7199 217.513 38.5422 218.437 38.5422H220.098V38.4452C220.098 37.9929 219.962 37.6456 219.689 37.4033C219.424 37.161 219.027 37.0399 218.497 37.0399C218.136 37.0399 217.778 37.0964 217.425 37.2095C217.08 37.3225 216.787 37.48 216.546 37.682L215.956 36.5795C216.293 36.321 216.699 36.1231 217.172 35.9858C217.646 35.8485 218.148 35.7799 218.677 35.7799ZM218.473 41.3045C218.85 41.3045 219.183 41.2197 219.472 41.05C219.769 40.8723 219.978 40.622 220.098 40.2989V39.5477H218.545C217.678 39.5477 217.244 39.8345 217.244 40.4079C217.244 40.6825 217.353 40.9006 217.57 41.0622C217.786 41.2237 218.087 41.3045 218.473 41.3045Z" fill="#13133E"/>
    <path d="M226.947 36.1675C227.557 36.1675 228.095 36.3008 228.56 36.5674C229.026 36.8258 229.387 37.1893 229.644 37.6577C229.909 38.1262 230.041 38.6633 230.041 39.2691C230.041 39.891 229.897 40.4443 229.608 40.9289C229.319 41.4054 228.913 41.777 228.392 42.0435C227.87 42.31 227.276 42.4433 226.609 42.4433C225.493 42.4433 224.63 42.0718 224.02 41.3287C223.41 40.5856 223.105 39.5154 223.105 38.1181C223.105 36.8177 223.382 35.7879 223.936 35.0287C224.49 34.2695 225.337 33.7687 226.477 33.5264L229.463 32.8843L229.68 34.2412L226.971 34.7985C226.192 34.96 225.61 35.2347 225.225 35.6224C224.839 36.01 224.614 36.5552 224.55 37.2579C224.839 36.9106 225.188 36.6441 225.598 36.4583C226.007 36.2645 226.457 36.1675 226.947 36.1675ZM226.645 41.2197C227.199 41.2197 227.645 41.042 227.982 40.6866C228.327 40.3231 228.5 39.8627 228.5 39.3054C228.5 38.7481 228.327 38.2998 227.982 37.9606C227.645 37.6214 227.199 37.4518 226.645 37.4518C226.083 37.4518 225.63 37.6214 225.285 37.9606C224.939 38.2998 224.767 38.7481 224.767 39.3054C224.767 39.8708 224.939 40.3312 225.285 40.6866C225.638 41.042 226.092 41.2197 226.645 41.2197Z" fill="#13133E"/>
    <path d="M234.364 42.407C233.714 42.407 233.128 42.2656 232.606 41.9829C232.084 41.7002 231.675 41.3085 231.378 40.8077C231.089 40.2989 230.944 39.7254 230.944 39.0873C230.944 38.4493 231.089 37.8799 231.378 37.3791C231.675 36.8783 232.084 36.4866 232.606 36.2039C233.128 35.9212 233.714 35.7799 234.364 35.7799C235.023 35.7799 235.613 35.9212 236.135 36.2039C236.656 36.4866 237.062 36.8783 237.351 37.3791C237.648 37.8799 237.796 38.4493 237.796 39.0873C237.796 39.7254 237.648 40.2989 237.351 40.8077C237.062 41.3085 236.656 41.7002 236.135 41.9829C235.613 42.2656 235.023 42.407 234.364 42.407ZM234.364 41.1106C234.918 41.1106 235.376 40.9248 235.737 40.5533C236.098 40.1818 236.279 39.6931 236.279 39.0873C236.279 38.4816 236.098 37.9929 235.737 37.6214C235.376 37.2499 234.918 37.0641 234.364 37.0641C233.81 37.0641 233.353 37.2499 232.992 37.6214C232.638 37.9929 232.462 38.4816 232.462 39.0873C232.462 39.6931 232.638 40.1818 232.992 40.5533C233.353 40.9248 233.81 41.1106 234.364 41.1106Z" fill="#13133E"/>
    <path d="M244.142 37.1368H241.89V42.3222H240.385V37.1368H238.121V35.8525H244.142V37.1368Z" fill="#13133E"/>
    <path d="M248.365 37.9849C249.184 37.9849 249.81 38.1706 250.243 38.5422C250.677 38.9137 250.894 39.4387 250.894 40.1172C250.894 40.8279 250.653 41.3772 250.171 41.7648C249.697 42.1525 249.023 42.3423 248.148 42.3343L245.234 42.3222V35.8525H246.739V37.9727L248.365 37.9849ZM251.725 35.8525H253.23V42.3222H251.725V35.8525ZM248.016 41.2197C248.457 41.2277 248.794 41.1348 249.027 40.941C249.26 40.7472 249.376 40.4645 249.376 40.0929C249.376 39.7295 249.264 39.4629 249.039 39.2933C248.814 39.1237 248.473 39.0348 248.016 39.0268L246.739 39.0147V41.2075L248.016 41.2197Z" fill="#13133E"/>
</svg>
